Coordinates
version=1
nRows=11
nColumns=40
inDegrees=yes

Units are S.I. units (second, meters, Newtons, ...)
Angles are in degrees.

endheader
time	pelvis_tilt	pelvis_list	pelvis_rotation	pelvis_tx	pelvis_ty	pelvis_tz	hip_flexion_r	hip_adduction_r	hip_rotation_r	knee_angle_r	knee_angle_r_beta	ankle_angle_r	subtalar_angle_r	mtp_angle_r	hip_flexion_l	hip_adduction_l	hip_rotation_l	knee_angle_l	knee_angle_l_beta	ankle_angle_l	subtalar_angle_l	mtp_angle_l	lumbar_extension	lumbar_bending	lumbar_rotation	arm_flex_r	arm_add_r	arm_rot_r	elbow_flex_r	pro_sup_r	wrist_flex_r	wrist_dev_r	arm_flex_l	arm_add_l	arm_rot_l	elbow_flex_l	pro_sup_l	wrist_flex_l	wrist_dev_l
     51.63000000	     -5.29653187	     -5.74285813	     -1.08228285	      0.93158159	      0.93009866	      0.49881254	     11.69625761	      4.70151641	    -13.32820784	     15.04590748	     15.04590748	     10.49936805	      3.37966889	     -2.11817919	     35.11016628	    -12.84345298	      3.34170638	     54.72227509	     54.72227509	      6.82951330	    -18.17008300	      9.68125312	    -10.88781859	      6.39147368	      1.27573008	     28.52150818	    -15.61145370	      1.69436163	     71.05079177	     44.84826537	      0.00000000	      0.00000000	      3.89661933	     -7.25539690	     -5.32603082	     27.32513112	     46.36496488	      0.00000000	      0.00000000
     51.64285714	     -5.51528909	     -5.60683264	     -0.72253538	      0.93023198	      0.93001384	      0.49843704	     11.33695134	      4.58242061	    -13.41650822	     14.60143338	     14.60143338	     10.72519872	      3.28558765	     -2.19125986	     35.62944925	    -12.51090714	      3.26237189	     51.13146848	     51.13146848	      7.31005362	    -17.96100687	     10.07004010	    -10.71011201	      6.26122058	      1.45790583	     30.52164645	    -15.87800810	      1.40850383	     72.65348927	     44.81683949	      0.00000000	      0.00000000	      2.90864696	     -7.00172521	     -5.15355191	     26.69104477	     46.31704723	      0.00000000	      0.00000000
     51.65571429	     -5.54555951	     -5.58366971	     -0.27177454	      0.92913634	      0.93010608	      0.49790078	     10.64699775	      4.58297974	    -13.71315731	     13.93073693	     13.93073693	     10.66075799	      3.34093957	     -2.84029071	     35.73307986	    -12.12118553	      3.43505989	     47.17908447	     47.17908447	      7.57232879	    -17.80900883	     10.02666362	    -10.85160170	      6.27460531	      1.99674529	     31.13704840	    -16.72277463	      1.20605698	     77.80088949	     44.69078339	      0.00000000	      0.00000000	      2.43810682	     -6.92043443	     -3.68274333	     25.32619212	     46.04414162	      0.00000000	      0.00000000
     51.66857143	     -5.68559695	     -5.46107853	      0.13661887	      0.92800647	      0.92990687	      0.49720868	     10.20750147	      4.45648279	    -13.82583307	     13.53509724	     13.53509724	     10.93560917	      3.23416097	     -2.93876184	     35.82448966	    -11.62332421	      3.51544051	     43.12922375	     43.12922375	      7.99013039	    -17.23697109	     10.34437149	    -10.72896101	      6.15690133	      1.95134584	     33.08255585	    -16.68685019	      0.86444054	     79.31023006	     44.66626720	      0.00000000	      0.00000000	      1.41575711	     -6.81254281	     -3.42967118	     24.79643197	     45.97951438	      0.00000000	      0.00000000
     51.68142857	     -5.76235348	     -5.40779988	      0.57070440	      0.92699979	      0.92966684	      0.49638628	      9.69089610	      4.39104245	    -14.03990405	     13.14524107	     13.14524107	     11.18590002	      3.18189544	     -3.09027033	     35.73504675	    -11.14168252	      3.68207976	     39.01522351	     39.01522351	      8.33009682	    -16.41930980	     10.54461871	    -10.69530585	      6.11499336	      1.77796171	     34.89758790	    -16.56857883	      0.65483386	     81.32579425	     44.62156997	      0.00000000	      0.00000000	      0.32571037	     -6.76091150	     -3.10208384	     24.35446044	     45.89722010	      0.00000000	      0.00000000
     51.69428571	     -5.82235963	     -5.40414365	      1.04291350	      0.92614310	      0.92925559	      0.49540871	      9.17529568	      4.36346515	    -14.30459020	     12.80668030	     12.80668030	     11.44643577	      3.15427486	     -3.33682503	     35.57058195	    -10.68005044	      3.87350187	     35.02734717	     35.02734717	      8.62243718	    -15.33420572	     10.55832891	    -10.68065461	      6.14551791	      1.67050239	     36.53765006	    -16.59983320	      0.50208053	     83.73287338	     44.56504934	      0.00000000	      0.00000000	     -0.76891656	     -6.71005453	     -2.61716081	     24.15927954	     45.78070083	      0.00000000	      0.00000000
     51.70714286	     -5.88758182	     -5.41111973	      1.48214498	      0.92543826	      0.92863943	      0.49436635	      8.68785501	      4.34178563	    -14.56526422	     12.52530306	     12.52530306	     11.60421181	      3.06888350	     -4.11921883	     35.34472414	    -10.26733291	      3.90976529	     31.20020458	     31.20020458	      8.42234601	    -14.15487796	      9.50204768	    -10.69297883	      6.18904651	      2.41472392	     37.35529334	    -17.59894768	     -0.07999287	     87.63881196	     44.52364971	      0.00000000	      0.00000000	     -1.90561747	     -7.00155313	      0.34807662	     25.19838826	     45.19383321	      0.00000000	      0.00000000
     51.72000000	     -5.91408946	     -5.41255547	      1.93100617	      0.92488732	      0.92809775	      0.49318586	      8.20416857	      4.30778247	    -14.72123426	     12.36265906	     12.36265906	     11.96970183	      2.88381264	     -4.24567714	     35.09011881	     -9.84739757	      3.83948354	     27.79629005	     27.79629005	      8.76188934	    -12.69593251	      9.96180307	    -10.62302437	      6.18548068	      2.18516424	     39.10044313	    -17.39281837	     -0.25967018	     89.02244632	     44.50151464	      0.00000000	      0.00000000	     -2.95730696	     -7.02061463	      0.81624686	     24.88598368	     45.09419034	      0.00000000	      0.00000000
     51.73285714	     -5.90912405	     -5.38254110	      2.35213864	      0.92452900	      0.92753332	      0.49189919	      7.69505805	      4.23507243	    -14.84107176	     12.24920813	     12.24920813	     12.37332880	      2.69221168	     -4.38347597	     34.79782024	     -9.42048346	      3.54868143	     24.84577173	     24.84577173	      9.03159806	    -11.30977818	     10.47190205	    -10.59633016	      6.16672335	      2.06657253	     40.70610867	    -17.28215161	     -0.37123193	     90.56789289	     44.47057596	      0.00000000	      0.00000000	     -4.01496033	     -7.06087666	      1.21419841	     24.80390597	     45.00368384	      0.00000000	      0.00000000
     51.74571429	     -5.99504878	     -5.53689076	      2.81440098	      0.92423037	      0.92662008	      0.49051340	      7.33378686	      4.34484197	    -15.06203320	     12.21660834	     12.21660834	     12.76238624	      2.45279347	     -4.50859353	     34.80590224	     -9.11759759	      3.33059934	     22.64653808	     22.64653808	      9.17389108	    -10.23867652	     10.88320709	    -10.39351676	      6.34233862	      2.08464911	     42.31422254	    -17.43670594	     -0.59238381	     91.76543405	     44.45091620	      0.00000000	      0.00000000	     -4.93283108	     -6.99781175	      1.44438779	     24.75300181	     44.94486474	      0.00000000	      0.00000000
     51.75857143	     -5.89928798	     -5.53453946	      3.21822319	      0.92432800	      0.92603976	      0.48909882	      6.72718382	      4.31394736	    -15.11157543	     12.16266395	     12.16266395	     13.23600446	      2.16092556	     -4.46032789	     34.60230402	     -8.77262137	      2.60986124	     21.07549570	     21.07549570	      9.66775554	     -9.07263804	     12.12485828	    -10.45098123	      6.32193051	      2.25413650	     43.19387853	    -17.66690553	     -0.85084722	     94.63928363	     44.58918507	      0.00000000	      0.00000000	     -6.94905206	     -8.59538557	     10.41102991	     27.89365723	     43.63706144	      0.00000000	      0.00000000
